<?xml version="1.0" standalone="no"?>
<!DOCTYPE svg PUBLIC "-//W3C//DTD SVG 20010904//EN"
 "http://www.w3.org/TR/2001/REC-SVG-20010904/DTD/svg10.dtd">
<svg version="1.0" xmlns="http://www.w3.org/2000/svg"
 width="240.000000pt" height="240.000000pt" viewBox="0 0 240.000000 240.000000"
 preserveAspectRatio="xMidYMid meet">
<metadata>
Created by potrace 1.11, written by Peter Selinger 2001-2013
</metadata>
<g transform="translate(0.000000,240.000000) scale(0.100000,-0.100000)"
fill="#000000" stroke="none">
<path d="M993 1943 l-53 -4 0 -453 0 -453 83 -7 c161 -13 306 31 392 120 88
90 119 198 113 389 -4 101 -9 142 -26 184 -43 110 -111 175 -217 207 -53 16
-203 25 -292 17z m257 -125 c85 -32 136 -117 150 -250 18 -184 -21 -331 -105
-390 -45 -32 -137 -51 -197 -42 l-38 7 0 343 0 343 28 4 c35 6 130 -3 162 -15z"/>
<path d="M1931 1293 c-5 -21 -31 -123 -57 -226 l-48 -189 -115 6 c-64 3 -386
8 -716 12 l-600 6 -130 -167 c-72 -91 -136 -174 -143 -185 -13 -17 3 -18 445
-17 252 0 603 -1 781 -1 l322 -2 -5 -23 c-70 -322 -105 -490 -102 -493 3 -3
695 521 720 546 5 4 -33 99 -83 211 -207 458 -253 559 -256 559 -2 0 -8 -17
-13 -37z"/>
</g>
</svg>
